<svg width="1080" height="1080" viewBox="0 0 1080 1080" fill="none" xmlns="http://www.w3.org/2000/svg">
<rect width="1080" height="1080" fill="black"/>
<path d="M552.654 383.367C552.654 381.243 554.383 379.519 556.51 379.574C587.92 380.387 618.453 390.166 644.398 407.769C671.403 426.091 692.181 452.037 704.014 482.212C715.847 512.387 718.184 545.386 710.719 576.893C703.254 608.4 686.334 636.948 662.173 658.802C638.013 680.656 607.736 694.799 575.303 699.38C542.871 703.962 509.793 698.769 480.397 684.481C451 670.193 426.654 647.474 410.543 619.298C395.016 592.144 386.917 561.14 388.848 530.069C388.971 528.081 390.641 526.558 392.637 526.558L442.241 526.556C444.496 526.556 446.261 528.482 446.179 530.731C445.446 550.68 451.302 574.212 460.993 591.159C471.368 609.305 487.047 623.935 505.978 633.137C524.909 642.338 546.211 645.682 567.097 642.732C587.983 639.781 607.481 630.674 623.04 616.6C638.6 602.526 649.496 584.141 654.303 563.851C659.111 543.561 657.606 522.31 649.986 502.877C642.365 483.445 628.984 466.736 611.593 454.937C595.362 443.925 574.626 441.132 556.499 440.809C554.375 440.771 552.654 439.057 552.654 436.937L552.654 383.367Z" fill="#F89C07"/>
<path d="M365 382.838C365 380.718 366.722 379 368.846 379H538.092C540.216 379 541.939 380.718 541.939 382.838V437.629C541.939 439.749 540.216 441.467 538.092 441.467H438.184C436.06 441.467 434.338 443.185 434.338 445.305V501.05C434.338 503.17 436.06 504.888 438.184 504.888H529.976C532.1 504.888 533.822 506.606 533.822 508.726V563.279C533.822 565.398 532.1 567.117 529.976 567.117H438.184C436.06 567.117 434.338 568.835 434.338 570.955V689.882C434.338 692.001 432.616 693.72 430.491 693.72H368.846C366.722 693.72 365 692.001 365 689.882V382.838Z" fill="#F89C07"/>
<path d="M574.634 504.696H532.322C529.517 504.696 526.826 505.808 524.843 507.787C522.859 509.767 521.744 512.451 521.744 515.251V557.469C521.744 560.268 522.859 562.953 524.843 564.932C526.826 566.912 529.517 568.024 532.322 568.024H574.634C577.439 568.024 580.13 566.912 582.113 564.932C584.097 562.953 585.212 560.268 585.212 557.469V515.251C585.212 512.451 584.097 509.767 582.113 507.787C580.13 505.808 577.439 504.696 574.634 504.696ZM528.796 515.251C528.796 514.318 529.168 513.423 529.829 512.763C530.49 512.103 531.387 511.732 532.322 511.732H574.634C575.569 511.732 576.466 512.103 577.127 512.763C577.788 513.423 578.16 514.318 578.16 515.251V518.769H528.796V515.251ZM578.16 557.469C578.16 558.402 577.788 559.297 577.127 559.957C576.466 560.617 575.569 560.987 574.634 560.987H532.322C531.387 560.987 530.49 560.617 529.829 559.957C529.168 559.297 528.796 558.402 528.796 557.469V525.805H578.16V557.469Z" fill="#F89C07"/>
<path d="M543.923 552.931C544.25 553.26 544.64 553.522 545.07 553.701C545.5 553.879 545.961 553.971 546.426 553.971C546.892 553.971 547.352 553.879 547.782 553.701C548.212 553.522 548.602 553.26 548.93 552.931C549.26 552.604 549.522 552.215 549.701 551.786C549.88 551.357 549.972 550.897 549.972 550.433C549.972 549.968 549.88 549.508 549.701 549.08C549.522 548.651 549.26 548.262 548.93 547.935L544.346 543.396L548.93 538.858C549.593 538.195 549.966 537.297 549.966 536.36C549.966 535.423 549.593 534.524 548.93 533.862C548.266 533.2 547.365 532.827 546.426 532.827C545.487 532.827 544.587 533.2 543.923 533.862L536.871 540.898C536.54 541.225 536.278 541.615 536.099 542.043C535.92 542.472 535.828 542.932 535.828 543.396C535.828 543.861 535.92 544.321 536.099 544.749C536.278 545.178 536.54 545.567 536.871 545.894L543.923 552.931ZM558.026 552.931C558.354 553.26 558.744 553.522 559.174 553.701C559.604 553.879 560.064 553.971 560.53 553.971C560.995 553.971 561.456 553.879 561.886 553.701C562.316 553.522 562.706 553.26 563.033 552.931L570.085 545.894C570.416 545.567 570.678 545.178 570.857 544.749C571.036 544.321 571.128 543.861 571.128 543.396C571.128 542.932 571.036 542.472 570.857 542.043C570.678 541.615 570.416 541.225 570.085 540.898L563.033 533.862C562.369 533.2 561.469 532.827 560.53 532.827C559.591 532.827 558.69 533.2 558.026 533.862C557.363 534.524 556.99 535.423 556.99 536.36C556.99 537.297 557.363 538.195 558.026 538.858L562.61 543.396L558.026 547.935C557.696 548.262 557.434 548.651 557.255 549.08C557.076 549.508 556.983 549.968 556.983 550.433C556.983 550.897 557.076 551.357 557.255 551.786C557.434 552.215 557.696 552.604 558.026 552.931Z" fill="#F89C07"/>
</svg>
